solid OpenSCAD_Model
  facet normal -1 0 0
    outer loop
      vertex 250 0 0
      vertex 250 50 3
      vertex 250 50 0
    endloop
  endfacet
  facet normal -1 -0 0
    outer loop
      vertex 250 50 3
      vertex 250 0 0
      vertex 250 0 3
    endloop
  endfacet
  facet normal -1 0 0
    outer loop
      vertex 250 0 3
      vertex 250 50 645.757
      vertex 250 50 3
    endloop
  endfacet
  facet normal -1 -0 0
    outer loop
      vertex 250 50 645.757
      vertex 250 0 3
      vertex 250 0 645.757
    endloop
  endfacet
  facet normal 1 -0 0
    outer loop
      vertex 250 0 645.757
      vertex 250 50 3
      vertex 250 50 645.757
    endloop
  endfacet
  facet normal 1 0 0
    outer loop
      vertex 250 50 3
      vertex 250 0 645.757
      vertex 250 0 3
    endloop
  endfacet
  facet normal -0 0 1
    outer loop
      vertex 253 50 3
      vertex 350 0 3
      vertex 350 50 3
    endloop
  endfacet
  facet normal 0 0 1
    outer loop
      vertex 253 50 3
      vertex 253 0 3
      vertex 350 0 3
    endloop
  endfacet
  facet normal -0 0 1
    outer loop
      vertex 250 50 3
      vertex 253 0 3
      vertex 253 50 3
    endloop
  endfacet
  facet normal 0 0 1
    outer loop
      vertex 253 0 3
      vertex 250 50 3
      vertex 250 0 3
    endloop
  endfacet
  facet normal 1 -0 0
    outer loop
      vertex 350 0 3
      vertex 350 50 0
      vertex 350 50 3
    endloop
  endfacet
  facet normal 1 0 0
    outer loop
      vertex 350 50 0
      vertex 350 0 3
      vertex 350 0 0
    endloop
  endfacet
  facet normal 0 1 -0
    outer loop
      vertex 350 50 0
      vertex 253 50 3
      vertex 350 50 3
    endloop
  endfacet
  facet normal 0 1 0
    outer loop
      vertex 250 50 0
      vertex 253 50 3
      vertex 350 50 0
    endloop
  endfacet
  facet normal 0 1 0
    outer loop
      vertex 253 50 3
      vertex 250 50 0
      vertex 250 50 3
    endloop
  endfacet
  facet normal 0 1 0
    outer loop
      vertex 253 50 648.2
      vertex 250 50 645.757
      vertex 252.443 50 648.2
    endloop
  endfacet
  facet normal 0 1 -0
    outer loop
      vertex 253 50 3
      vertex 250 50 645.757
      vertex 253 50 648.2
    endloop
  endfacet
  facet normal 0 1 0
    outer loop
      vertex 250 50 645.757
      vertex 253 50 3
      vertex 250 50 3
    endloop
  endfacet
  facet normal 0 -1 0
    outer loop
      vertex 250 50 645.757
      vertex 253 50 648.2
      vertex 252.443 50 648.2
    endloop
  endfacet
  facet normal 0 -1 0
    outer loop
      vertex 253 50 3
      vertex 250 50 645.757
      vertex 250 50 3
    endloop
  endfacet
  facet normal 0 -1 0
    outer loop
      vertex 250 50 645.757
      vertex 253 50 3
      vertex 253 50 648.2
    endloop
  endfacet
  facet normal 0 1 -0
    outer loop
      vertex 253 50 648.2
      vertex 251.442 50 651.2
      vertex 351 50 651.2
    endloop
  endfacet
  facet normal 0 1 -0
    outer loop
      vertex 252.443 50 648.2
      vertex 251.442 50 651.2
      vertex 253 50 648.2
    endloop
  endfacet
  facet normal -0 1 0
    outer loop
      vertex 251 50 651
      vertex 251.442 50 651.2
      vertex 252.443 50 648.2
    endloop
  endfacet
  facet normal 0 1 0
    outer loop
      vertex 253 50 648.2
      vertex 351 50 651.2
      vertex 351 50 648.2
    endloop
  endfacet
  facet normal 0 1 0
    outer loop
      vertex 251.2 50 651.2
      vertex 251 50 651
      vertex 251 50 651.2
    endloop
  endfacet
  facet normal 0 1 0
    outer loop
      vertex 251.442 50 651.2
      vertex 251 50 651
      vertex 251.2 50 651.2
    endloop
  endfacet
  facet normal 0 1 0
    outer loop
      vertex 250 50 645.757
      vertex 251 50 651
      vertex 252.443 50 648.2
    endloop
  endfacet
  facet normal 0 1 -0
    outer loop
      vertex 250 50 645.757
      vertex 100 50 500
      vertex 251 50 651
    endloop
  endfacet
  facet normal 0 1 -0
    outer loop
      vertex 103 50 498.757
      vertex 100 50 500
      vertex 250 50 645.757
    endloop
  endfacet
  facet normal 0 1 0
    outer loop
      vertex 103 50 498.757
      vertex 100 50 3
      vertex 100 50 500
    endloop
  endfacet
  facet normal 0 1 -0
    outer loop
      vertex 103 50 0
      vertex 100 50 3
      vertex 103 50 498.757
    endloop
  endfacet
  facet normal 0 1 0
    outer loop
      vertex 0 50 0
      vertex 100 50 3
      vertex 103 50 0
    endloop
  endfacet
  facet normal 0 1 0
    outer loop
      vertex 100 50 3
      vertex 0 50 0
      vertex 0 50 3
    endloop
  endfacet
  facet normal 0 1 0
    outer loop
      vertex 251.321 50 651.321
      vertex 251.442 50 651.2
      vertex 251.2 50 651.2
    endloop
  endfacet
  facet normal 0 0 -1
    outer loop
      vertex 250 0 0
      vertex 350 50 0
      vertex 350 0 0
    endloop
  endfacet
  facet normal -0 0 -1
    outer loop
      vertex 350 50 0
      vertex 250 0 0
      vertex 250 50 0
    endloop
  endfacet
  facet normal 0 -1 0
    outer loop
      vertex 250 0 0
      vertex 253 0 3
      vertex 250 0 3
    endloop
  endfacet
  facet normal 0 -1 0
    outer loop
      vertex 350 0 0
      vertex 253 0 3
      vertex 250 0 0
    endloop
  endfacet
  facet normal 0 -1 0
    outer loop
      vertex 253 0 3
      vertex 350 0 0
      vertex 350 0 3
    endloop
  endfacet
  facet normal 0 -1 0
    outer loop
      vertex 250 0 645.757
      vertex 253 0 648.2
      vertex 252.443 0 648.2
    endloop
  endfacet
  facet normal 0 -1 0
    outer loop
      vertex 253 0 3
      vertex 250 0 645.757
      vertex 250 0 3
    endloop
  endfacet
  facet normal 0 -1 0
    outer loop
      vertex 250 0 645.757
      vertex 253 0 3
      vertex 253 0 648.2
    endloop
  endfacet
  facet normal 0 1 0
    outer loop
      vertex 253 0 648.2
      vertex 250 0 645.757
      vertex 252.443 0 648.2
    endloop
  endfacet
  facet normal 0 1 -0
    outer loop
      vertex 253 0 3
      vertex 250 0 645.757
      vertex 253 0 648.2
    endloop
  endfacet
  facet normal 0 1 0
    outer loop
      vertex 250 0 645.757
      vertex 253 0 3
      vertex 250 0 3
    endloop
  endfacet
  facet normal 0 -1 0
    outer loop
      vertex 0 0 3
      vertex 0 0 0
      vertex 100 0 3
    endloop
  endfacet
  facet normal 0 -1 -0
    outer loop
      vertex 251 0 651
      vertex 250 0 645.757
      vertex 252.443 0 648.2
    endloop
  endfacet
  facet normal 0 -1 0
    outer loop
      vertex 100 0 500
      vertex 250 0 645.757
      vertex 251 0 651
    endloop
  endfacet
  facet normal 0 -1 0
    outer loop
      vertex 100 0 500
      vertex 103 0 498.757
      vertex 250 0 645.757
    endloop
  endfacet
  facet normal 0 -1 0
    outer loop
      vertex 100 0 3
      vertex 103 0 498.757
      vertex 100 0 500
    endloop
  endfacet
  facet normal 0 -1 0
    outer loop
      vertex 100 0 3
      vertex 103 0 0
      vertex 103 0 498.757
    endloop
  endfacet
  facet normal 0 -1 0
    outer loop
      vertex 103 0 0
      vertex 100 0 3
      vertex 0 0 0
    endloop
  endfacet
  facet normal 0 -1 0
    outer loop
      vertex 251 0 651
      vertex 251.2 0 651.2
      vertex 251 0 651.2
    endloop
  endfacet
  facet normal 0 -1 -0
    outer loop
      vertex 251.2 0 651.2
      vertex 251 0 651
      vertex 251.442 0 651.2
    endloop
  endfacet
  facet normal 0 -1 0
    outer loop
      vertex 252.443 0 648.2
      vertex 251.442 0 651.2
      vertex 251 0 651
    endloop
  endfacet
  facet normal 0 -1 0
    outer loop
      vertex 251.442 0 651.2
      vertex 252.443 0 648.2
      vertex 253 0 648.2
    endloop
  endfacet
  facet normal 0 -1 0
    outer loop
      vertex 251.442 0 651.2
      vertex 253 0 648.2
      vertex 351 0 651.2
    endloop
  endfacet
  facet normal 0 -1 -0
    outer loop
      vertex 351 0 651.2
      vertex 253 0 648.2
      vertex 351 0 648.2
    endloop
  endfacet
  facet normal 0 -1 -0
    outer loop
      vertex 251.321 0 651.321
      vertex 251.2 0 651.2
      vertex 251.442 0 651.2
    endloop
  endfacet
  facet normal -1 0 0
    outer loop
      vertex 251 0 651
      vertex 251 50 651.2
      vertex 251 50 651
    endloop
  endfacet
  facet normal -1 -0 0
    outer loop
      vertex 251 50 651.2
      vertex 251 0 651
      vertex 251 0 651.2
    endloop
  endfacet
  facet normal -0 0 1
    outer loop
      vertex 251 50 651.2
      vertex 251.2 0 651.2
      vertex 251.2 50 651.2
    endloop
  endfacet
  facet normal 0 0 1
    outer loop
      vertex 251.2 0 651.2
      vertex 251 50 651.2
      vertex 251 0 651.2
    endloop
  endfacet
  facet normal 0 0 1
    outer loop
      vertex 351 50 651.2
      vertex 306 25 651.2
      vertex 351 0 651.2
    endloop
  endfacet
  facet normal 0 0 1
    outer loop
      vertex 351 50 651.2
      vertex 305.619 26.9134 651.2
      vertex 306 25 651.2
    endloop
  endfacet
  facet normal 0 0 1
    outer loop
      vertex 351 50 651.2
      vertex 304.536 28.5355 651.2
      vertex 305.619 26.9134 651.2
    endloop
  endfacet
  facet normal 0 0 1
    outer loop
      vertex 351 50 651.2
      vertex 302.913 29.6194 651.2
      vertex 304.536 28.5355 651.2
    endloop
  endfacet
  facet normal 0 0 1
    outer loop
      vertex 351 50 651.2
      vertex 301 30 651.2
      vertex 302.913 29.6194 651.2
    endloop
  endfacet
  facet normal -0 0 1
    outer loop
      vertex 251.442 50 651.2
      vertex 301 30 651.2
      vertex 351 50 651.2
    endloop
  endfacet
  facet normal 0 0 1
    outer loop
      vertex 296.381 26.9134 651.2
      vertex 251.442 50 651.2
      vertex 296 25 651.2
    endloop
  endfacet
  facet normal 0 0 1
    outer loop
      vertex 297.464 28.5355 651.2
      vertex 251.442 50 651.2
      vertex 296.381 26.9134 651.2
    endloop
  endfacet
  facet normal 0 0 1
    outer loop
      vertex 299.087 29.6194 651.2
      vertex 251.442 50 651.2
      vertex 297.464 28.5355 651.2
    endloop
  endfacet
  facet normal 0 0 1
    outer loop
      vertex 301 30 651.2
      vertex 251.442 50 651.2
      vertex 299.087 29.6194 651.2
    endloop
  endfacet
  facet normal -0 0 1
    outer loop
      vertex 305.619 23.0866 651.2
      vertex 351 0 651.2
      vertex 306 25 651.2
    endloop
  endfacet
  facet normal -0 0 1
    outer loop
      vertex 304.536 21.4645 651.2
      vertex 351 0 651.2
      vertex 305.619 23.0866 651.2
    endloop
  endfacet
  facet normal -0 0 1
    outer loop
      vertex 302.913 20.3806 651.2
      vertex 351 0 651.2
      vertex 304.536 21.4645 651.2
    endloop
  endfacet
  facet normal -0 0 1
    outer loop
      vertex 301 20 651.2
      vertex 351 0 651.2
      vertex 302.913 20.3806 651.2
    endloop
  endfacet
  facet normal 0 0 1
    outer loop
      vertex 251.442 0 651.2
      vertex 301 20 651.2
      vertex 299.087 20.3806 651.2
    endloop
  endfacet
  facet normal 0 0 1
    outer loop
      vertex 251.442 0 651.2
      vertex 296 25 651.2
      vertex 251.442 50 651.2
    endloop
  endfacet
  facet normal 0 0 1
    outer loop
      vertex 296 25 651.2
      vertex 251.442 0 651.2
      vertex 296.381 23.0866 651.2
    endloop
  endfacet
  facet normal 0 0 1
    outer loop
      vertex 296.381 23.0866 651.2
      vertex 251.442 0 651.2
      vertex 297.464 21.4645 651.2
    endloop
  endfacet
  facet normal 0 0 1
    outer loop
      vertex 301 20 651.2
      vertex 251.442 0 651.2
      vertex 351 0 651.2
    endloop
  endfacet
  facet normal 0 0 1
    outer loop
      vertex 297.464 21.4645 651.2
      vertex 251.442 0 651.2
      vertex 299.087 20.3806 651.2
    endloop
  endfacet
  facet normal 1 -0 0
    outer loop
      vertex 351 0 651.2
      vertex 351 50 648.2
      vertex 351 50 651.2
    endloop
  endfacet
  facet normal 1 0 0
    outer loop
      vertex 351 50 648.2
      vertex 351 0 651.2
      vertex 351 0 648.2
    endloop
  endfacet
  facet normal 0 0 -1
    outer loop
      vertex 351 0 648.2
      vertex 306 25 648.2
      vertex 351 50 648.2
    endloop
  endfacet
  facet normal 0 0 -1
    outer loop
      vertex 351 0 648.2
      vertex 305.619 23.0866 648.2
      vertex 306 25 648.2
    endloop
  endfacet
  facet normal 0 0 -1
    outer loop
      vertex 351 0 648.2
      vertex 304.536 21.4645 648.2
      vertex 305.619 23.0866 648.2
    endloop
  endfacet
  facet normal 0 0 -1
    outer loop
      vertex 351 0 648.2
      vertex 302.913 20.3806 648.2
      vertex 304.536 21.4645 648.2
    endloop
  endfacet
  facet normal 0 0 -1
    outer loop
      vertex 351 0 648.2
      vertex 301 20 648.2
      vertex 302.913 20.3806 648.2
    endloop
  endfacet
  facet normal 0 0 -1
    outer loop
      vertex 253 0 648.2
      vertex 301 20 648.2
      vertex 351 0 648.2
    endloop
  endfacet
  facet normal -0 0 -1
    outer loop
      vertex 296.381 23.0866 648.2
      vertex 253 0 648.2
      vertex 296 25 648.2
    endloop
  endfacet
  facet normal -0 0 -1
    outer loop
      vertex 297.464 21.4645 648.2
      vertex 253 0 648.2
      vertex 296.381 23.0866 648.2
    endloop
  endfacet
  facet normal -0 0 -1
    outer loop
      vertex 299.087 20.3806 648.2
      vertex 253 0 648.2
      vertex 297.464 21.4645 648.2
    endloop
  endfacet
  facet normal -0 0 -1
    outer loop
      vertex 301 20 648.2
      vertex 253 0 648.2
      vertex 299.087 20.3806 648.2
    endloop
  endfacet
  facet normal 0 0 -1
    outer loop
      vertex 305.619 26.9134 648.2
      vertex 351 50 648.2
      vertex 306 25 648.2
    endloop
  endfacet
  facet normal 0 0 -1
    outer loop
      vertex 304.536 28.5355 648.2
      vertex 351 50 648.2
      vertex 305.619 26.9134 648.2
    endloop
  endfacet
  facet normal 0 0 -1
    outer loop
      vertex 302.913 29.6194 648.2
      vertex 351 50 648.2
      vertex 304.536 28.5355 648.2
    endloop
  endfacet
  facet normal 0 0 -1
    outer loop
      vertex 301 30 648.2
      vertex 351 50 648.2
      vertex 302.913 29.6194 648.2
    endloop
  endfacet
  facet normal 0 0 -1
    outer loop
      vertex 253 50 648.2
      vertex 301 30 648.2
      vertex 299.087 29.6194 648.2
    endloop
  endfacet
  facet normal 0 0 -1
    outer loop
      vertex 253 50 648.2
      vertex 296 25 648.2
      vertex 253 0 648.2
    endloop
  endfacet
  facet normal 0 0 -1
    outer loop
      vertex 296 25 648.2
      vertex 253 50 648.2
      vertex 296.381 26.9134 648.2
    endloop
  endfacet
  facet normal 0 0 -1
    outer loop
      vertex 296.381 26.9134 648.2
      vertex 253 50 648.2
      vertex 297.464 28.5355 648.2
    endloop
  endfacet
  facet normal 0 0 -1
    outer loop
      vertex 301 30 648.2
      vertex 253 50 648.2
      vertex 351 50 648.2
    endloop
  endfacet
  facet normal 0 0 -1
    outer loop
      vertex 297.464 28.5355 648.2
      vertex 253 50 648.2
      vertex 299.087 29.6194 648.2
    endloop
  endfacet
  facet normal 0 0 -1
    outer loop
      vertex 252.443 0 648.2
      vertex 253 50 648.2
      vertex 253 0 648.2
    endloop
  endfacet
  facet normal -0 0 -1
    outer loop
      vertex 253 50 648.2
      vertex 252.443 0 648.2
      vertex 252.443 50 648.2
    endloop
  endfacet
  facet normal -0.980784 -0.195097 0
    outer loop
      vertex 306 25 648.2
      vertex 305.619 26.9134 651.2
      vertex 305.619 26.9134 648.2
    endloop
  endfacet
  facet normal -0.980784 -0.195097 0
    outer loop
      vertex 305.619 26.9134 651.2
      vertex 306 25 648.2
      vertex 306 25 651.2
    endloop
  endfacet
  facet normal -0.195091 -0.980785 0
    outer loop
      vertex 301 30 648.2
      vertex 302.913 29.6194 651.2
      vertex 301 30 651.2
    endloop
  endfacet
  facet normal -0.195091 -0.980785 -0
    outer loop
      vertex 302.913 29.6194 651.2
      vertex 301 30 648.2
      vertex 302.913 29.6194 648.2
    endloop
  endfacet
  facet normal 0.980784 0.195097 0
    outer loop
      vertex 296.381 23.0866 651.2
      vertex 296 25 648.2
      vertex 296 25 651.2
    endloop
  endfacet
  facet normal 0.980784 0.195097 0
    outer loop
      vertex 296 25 648.2
      vertex 296.381 23.0866 651.2
      vertex 296.381 23.0866 648.2
    endloop
  endfacet
  facet normal -0.83147 0.55557 0
    outer loop
      vertex 304.536 21.4645 648.2
      vertex 305.619 23.0866 651.2
      vertex 305.619 23.0866 648.2
    endloop
  endfacet
  facet normal -0.83147 0.55557 0
    outer loop
      vertex 305.619 23.0866 651.2
      vertex 304.536 21.4645 648.2
      vertex 304.536 21.4645 651.2
    endloop
  endfacet
  facet normal -0.555574 0.831467 0
    outer loop
      vertex 304.536 21.4645 648.2
      vertex 302.913 20.3806 651.2
      vertex 304.536 21.4645 651.2
    endloop
  endfacet
  facet normal -0.555574 0.831467 0
    outer loop
      vertex 302.913 20.3806 651.2
      vertex 304.536 21.4645 648.2
      vertex 302.913 20.3806 648.2
    endloop
  endfacet
  facet normal -0.19509 0.980785 0
    outer loop
      vertex 302.913 20.3806 648.2
      vertex 301 20 651.2
      vertex 302.913 20.3806 651.2
    endloop
  endfacet
  facet normal -0.19509 0.980785 0
    outer loop
      vertex 301 20 651.2
      vertex 302.913 20.3806 648.2
      vertex 301 20 648.2
    endloop
  endfacet
  facet normal -0.555573 -0.831467 0
    outer loop
      vertex 302.913 29.6194 648.2
      vertex 304.536 28.5355 651.2
      vertex 302.913 29.6194 651.2
    endloop
  endfacet
  facet normal -0.555573 -0.831467 -0
    outer loop
      vertex 304.536 28.5355 651.2
      vertex 302.913 29.6194 648.2
      vertex 304.536 28.5355 648.2
    endloop
  endfacet
  facet normal -0.83147 -0.55557 0
    outer loop
      vertex 305.619 26.9134 648.2
      vertex 304.536 28.5355 651.2
      vertex 304.536 28.5355 648.2
    endloop
  endfacet
  facet normal -0.83147 -0.55557 0
    outer loop
      vertex 304.536 28.5355 651.2
      vertex 305.619 26.9134 648.2
      vertex 305.619 26.9134 651.2
    endloop
  endfacet
  facet normal 0.195091 -0.980785 0
    outer loop
      vertex 299.087 29.6194 648.2
      vertex 301 30 651.2
      vertex 299.087 29.6194 651.2
    endloop
  endfacet
  facet normal 0.195091 -0.980785 0
    outer loop
      vertex 301 30 651.2
      vertex 299.087 29.6194 648.2
      vertex 301 30 648.2
    endloop
  endfacet
  facet normal 0.555573 -0.831467 0
    outer loop
      vertex 297.464 28.5355 648.2
      vertex 299.087 29.6194 651.2
      vertex 297.464 28.5355 651.2
    endloop
  endfacet
  facet normal 0.555573 -0.831467 0
    outer loop
      vertex 299.087 29.6194 651.2
      vertex 297.464 28.5355 648.2
      vertex 299.087 29.6194 648.2
    endloop
  endfacet
  facet normal 0.980784 -0.195097 0
    outer loop
      vertex 296 25 651.2
      vertex 296.381 26.9134 648.2
      vertex 296.381 26.9134 651.2
    endloop
  endfacet
  facet normal 0.980784 -0.195097 0
    outer loop
      vertex 296.381 26.9134 648.2
      vertex 296 25 651.2
      vertex 296 25 648.2
    endloop
  endfacet
  facet normal 0.83147 -0.55557 0
    outer loop
      vertex 296.381 26.9134 651.2
      vertex 297.464 28.5355 648.2
      vertex 297.464 28.5355 651.2
    endloop
  endfacet
  facet normal 0.83147 -0.55557 0
    outer loop
      vertex 297.464 28.5355 648.2
      vertex 296.381 26.9134 651.2
      vertex 296.381 26.9134 648.2
    endloop
  endfacet
  facet normal 0.83147 0.55557 0
    outer loop
      vertex 297.464 21.4645 651.2
      vertex 296.381 23.0866 648.2
      vertex 296.381 23.0866 651.2
    endloop
  endfacet
  facet normal 0.83147 0.55557 0
    outer loop
      vertex 296.381 23.0866 648.2
      vertex 297.464 21.4645 651.2
      vertex 297.464 21.4645 648.2
    endloop
  endfacet
  facet normal 0.19509 0.980785 -0
    outer loop
      vertex 301 20 648.2
      vertex 299.087 20.3806 651.2
      vertex 301 20 651.2
    endloop
  endfacet
  facet normal 0.19509 0.980785 0
    outer loop
      vertex 299.087 20.3806 651.2
      vertex 301 20 648.2
      vertex 299.087 20.3806 648.2
    endloop
  endfacet
  facet normal 0.555574 0.831467 -0
    outer loop
      vertex 299.087 20.3806 648.2
      vertex 297.464 21.4645 651.2
      vertex 299.087 20.3806 651.2
    endloop
  endfacet
  facet normal 0.555574 0.831467 0
    outer loop
      vertex 297.464 21.4645 651.2
      vertex 299.087 20.3806 648.2
      vertex 297.464 21.4645 648.2
    endloop
  endfacet
  facet normal -0.980784 0.195097 0
    outer loop
      vertex 305.619 23.0866 648.2
      vertex 306 25 651.2
      vertex 306 25 648.2
    endloop
  endfacet
  facet normal -0.980784 0.195097 0
    outer loop
      vertex 306 25 651.2
      vertex 305.619 23.0866 648.2
      vertex 305.619 23.0866 651.2
    endloop
  endfacet
  facet normal 0.994522 0.104529 0
    outer loop
      vertex 225 25 500
      vertex 223.907 35.3956 0
      vertex 223.907 35.3956 500
    endloop
  endfacet
  facet normal 0.994522 0.104529 0
    outer loop
      vertex 223.907 35.3956 0
      vertex 225 25 500
      vertex 225 25 0
    endloop
  endfacet
  facet normal 0 1 -0
    outer loop
      vertex 180.226 74.7261 0
      vertex 169.774 74.7261 500
      vertex 180.226 74.7261 500
    endloop
  endfacet
  facet normal 0 1 0
    outer loop
      vertex 169.774 74.7261 500
      vertex 180.226 74.7261 0
      vertex 169.774 74.7261 0
    endloop
  endfacet
  facet normal -0.587785 -0.809017 0
    outer loop
      vertex 141.543 -12.1572 0
      vertex 150 -18.3013 500
      vertex 141.543 -12.1572 500
    endloop
  endfacet
  facet normal -0.587785 -0.809017 -0
    outer loop
      vertex 150 -18.3013 500
      vertex 141.543 -12.1572 0
      vertex 150 -18.3013 0
    endloop
  endfacet
  facet normal 0.587785 0.809017 -0
    outer loop
      vertex 208.457 62.1572 0
      vertex 200 68.3013 500
      vertex 208.457 62.1572 500
    endloop
  endfacet
  facet normal 0.587785 0.809017 0
    outer loop
      vertex 200 68.3013 500
      vertex 208.457 62.1572 0
      vertex 200 68.3013 0
    endloop
  endfacet
  facet normal -0.743145 0.669131 0
    outer loop
      vertex 134.549 54.3893 0
      vertex 141.543 62.1572 500
      vertex 141.543 62.1572 0
    endloop
  endfacet
  facet normal -0.743145 0.669131 0
    outer loop
      vertex 141.543 62.1572 500
      vertex 134.549 54.3893 0
      vertex 134.549 54.3893 500
    endloop
  endfacet
  facet normal -0.406737 0.913545 0
    outer loop
      vertex 159.549 72.5528 0
      vertex 150 68.3013 500
      vertex 159.549 72.5528 500
    endloop
  endfacet
  facet normal -0.406737 0.913545 0
    outer loop
      vertex 150 68.3013 500
      vertex 159.549 72.5528 0
      vertex 150 68.3013 0
    endloop
  endfacet
  facet normal 0.743145 -0.669131 0
    outer loop
      vertex 208.457 -12.1572 500
      vertex 215.451 -4.38926 0
      vertex 215.451 -4.38926 500
    endloop
  endfacet
  facet normal 0.743145 -0.669131 0
    outer loop
      vertex 215.451 -4.38926 0
      vertex 208.457 -12.1572 500
      vertex 208.457 -12.1572 0
    endloop
  endfacet
  facet normal 0.866025 0.5 0
    outer loop
      vertex 220.677 45.3368 500
      vertex 215.451 54.3893 0
      vertex 215.451 54.3893 500
    endloop
  endfacet
  facet normal 0.866025 0.5 0
    outer loop
      vertex 215.451 54.3893 0
      vertex 220.677 45.3368 500
      vertex 220.677 45.3368 0
    endloop
  endfacet
  facet normal 0.951057 0.309017 0
    outer loop
      vertex 223.907 35.3956 500
      vertex 220.677 45.3368 0
      vertex 220.677 45.3368 500
    endloop
  endfacet
  facet normal 0.951057 0.309017 0
    outer loop
      vertex 220.677 45.3368 0
      vertex 223.907 35.3956 500
      vertex 223.907 35.3956 0
    endloop
  endfacet
  facet normal 0.743145 0.669131 0
    outer loop
      vertex 215.451 54.3893 500
      vertex 208.457 62.1572 0
      vertex 208.457 62.1572 500
    endloop
  endfacet
  facet normal 0.743145 0.669131 0
    outer loop
      vertex 208.457 62.1572 0
      vertex 215.451 54.3893 500
      vertex 215.451 54.3893 0
    endloop
  endfacet
  facet normal 0.207912 0.978148 -0
    outer loop
      vertex 190.451 72.5528 0
      vertex 180.226 74.7261 500
      vertex 190.451 72.5528 500
    endloop
  endfacet
  facet normal 0.207912 0.978148 0
    outer loop
      vertex 180.226 74.7261 500
      vertex 190.451 72.5528 0
      vertex 180.226 74.7261 0
    endloop
  endfacet
  facet normal 0.406737 0.913545 -0
    outer loop
      vertex 200 68.3013 0
      vertex 190.451 72.5528 500
      vertex 200 68.3013 500
    endloop
  endfacet
  facet normal 0.406737 0.913545 0
    outer loop
      vertex 190.451 72.5528 500
      vertex 200 68.3013 0
      vertex 190.451 72.5528 0
    endloop
  endfacet
  facet normal -0.951057 0.309017 0
    outer loop
      vertex 126.093 35.3956 0
      vertex 129.323 45.3368 500
      vertex 129.323 45.3368 0
    endloop
  endfacet
  facet normal -0.951057 0.309017 0
    outer loop
      vertex 129.323 45.3368 500
      vertex 126.093 35.3956 0
      vertex 126.093 35.3956 500
    endloop
  endfacet
  facet normal 0 0 -1
    outer loop
      vertex 223.907 14.6044 0
      vertex 223.907 35.3956 0
      vertex 225 25 0
    endloop
  endfacet
  facet normal 0 0 -1
    outer loop
      vertex 220.677 4.66317 0
      vertex 223.907 35.3956 0
      vertex 223.907 14.6044 0
    endloop
  endfacet
  facet normal 0 0 -1
    outer loop
      vertex 220.677 4.66317 0
      vertex 220.677 45.3368 0
      vertex 223.907 35.3956 0
    endloop
  endfacet
  facet normal 0 0 -1
    outer loop
      vertex 215.451 -4.38926 0
      vertex 220.677 45.3368 0
      vertex 220.677 4.66317 0
    endloop
  endfacet
  facet normal 0 0 -1
    outer loop
      vertex 215.451 -4.38926 0
      vertex 215.451 54.3893 0
      vertex 220.677 45.3368 0
    endloop
  endfacet
  facet normal 0 0 -1
    outer loop
      vertex 208.457 -12.1572 0
      vertex 215.451 54.3893 0
      vertex 215.451 -4.38926 0
    endloop
  endfacet
  facet normal 0 0 -1
    outer loop
      vertex 208.457 -12.1572 0
      vertex 208.457 62.1572 0
      vertex 215.451 54.3893 0
    endloop
  endfacet
  facet normal 0 0 -1
    outer loop
      vertex 200 -18.3013 0
      vertex 208.457 62.1572 0
      vertex 208.457 -12.1572 0
    endloop
  endfacet
  facet normal 0 0 -1
    outer loop
      vertex 200 -18.3013 0
      vertex 200 68.3013 0
      vertex 208.457 62.1572 0
    endloop
  endfacet
  facet normal 0 0 -1
    outer loop
      vertex 190.451 -22.5528 0
      vertex 200 68.3013 0
      vertex 200 -18.3013 0
    endloop
  endfacet
  facet normal 0 0 -1
    outer loop
      vertex 190.451 -22.5528 0
      vertex 190.451 72.5528 0
      vertex 200 68.3013 0
    endloop
  endfacet
  facet normal 0 0 -1
    outer loop
      vertex 180.226 -24.7261 0
      vertex 190.451 72.5528 0
      vertex 190.451 -22.5528 0
    endloop
  endfacet
  facet normal 0 0 -1
    outer loop
      vertex 180.226 -24.7261 0
      vertex 180.226 74.7261 0
      vertex 190.451 72.5528 0
    endloop
  endfacet
  facet normal 0 0 -1
    outer loop
      vertex 169.774 -24.7261 0
      vertex 180.226 74.7261 0
      vertex 180.226 -24.7261 0
    endloop
  endfacet
  facet normal 0 0 -1
    outer loop
      vertex 169.774 -24.7261 0
      vertex 169.774 74.7261 0
      vertex 180.226 74.7261 0
    endloop
  endfacet
  facet normal 0 0 -1
    outer loop
      vertex 159.549 -22.5528 0
      vertex 169.774 74.7261 0
      vertex 169.774 -24.7261 0
    endloop
  endfacet
  facet normal 0 0 -1
    outer loop
      vertex 159.549 -22.5528 0
      vertex 159.549 72.5528 0
      vertex 169.774 74.7261 0
    endloop
  endfacet
  facet normal 0 0 -1
    outer loop
      vertex 150 -18.3013 0
      vertex 159.549 72.5528 0
      vertex 159.549 -22.5528 0
    endloop
  endfacet
  facet normal 0 0 -1
    outer loop
      vertex 150 -18.3013 0
      vertex 150 68.3013 0
      vertex 159.549 72.5528 0
    endloop
  endfacet
  facet normal 0 0 -1
    outer loop
      vertex 141.543 -12.1572 0
      vertex 150 68.3013 0
      vertex 150 -18.3013 0
    endloop
  endfacet
  facet normal 0 0 -1
    outer loop
      vertex 141.543 -12.1572 0
      vertex 141.543 62.1572 0
      vertex 150 68.3013 0
    endloop
  endfacet
  facet normal 0 0 -1
    outer loop
      vertex 134.549 -4.38926 0
      vertex 141.543 62.1572 0
      vertex 141.543 -12.1572 0
    endloop
  endfacet
  facet normal 0 0 -1
    outer loop
      vertex 134.549 -4.38926 0
      vertex 134.549 54.3893 0
      vertex 141.543 62.1572 0
    endloop
  endfacet
  facet normal 0 0 -1
    outer loop
      vertex 129.323 4.66317 0
      vertex 134.549 54.3893 0
      vertex 134.549 -4.38926 0
    endloop
  endfacet
  facet normal 0 0 -1
    outer loop
      vertex 129.323 4.66317 0
      vertex 129.323 45.3368 0
      vertex 134.549 54.3893 0
    endloop
  endfacet
  facet normal 0 0 -1
    outer loop
      vertex 126.093 14.6044 0
      vertex 129.323 45.3368 0
      vertex 129.323 4.66317 0
    endloop
  endfacet
  facet normal 0 0 -1
    outer loop
      vertex 126.093 14.6044 0
      vertex 126.093 35.3956 0
      vertex 129.323 45.3368 0
    endloop
  endfacet
  facet normal 0 -0 -1
    outer loop
      vertex 126.093 35.3956 0
      vertex 126.093 14.6044 0
      vertex 125 25 0
    endloop
  endfacet
  facet normal -0.866025 0.5 0
    outer loop
      vertex 129.323 45.3368 0
      vertex 134.549 54.3893 500
      vertex 134.549 54.3893 0
    endloop
  endfacet
  facet normal -0.866025 0.5 0
    outer loop
      vertex 134.549 54.3893 500
      vertex 129.323 45.3368 0
      vertex 129.323 45.3368 500
    endloop
  endfacet
  facet normal -0.994522 0.104529 0
    outer loop
      vertex 125 25 0
      vertex 126.093 35.3956 500
      vertex 126.093 35.3956 0
    endloop
  endfacet
  facet normal -0.994522 0.104529 0
    outer loop
      vertex 126.093 35.3956 500
      vertex 125 25 0
      vertex 125 25 500
    endloop
  endfacet
  facet normal 0 0 1
    outer loop
      vertex 223.907 35.3956 500
      vertex 223.907 14.6044 500
      vertex 225 25 500
    endloop
  endfacet
  facet normal 0 0 1
    outer loop
      vertex 220.677 45.3368 500
      vertex 223.907 14.6044 500
      vertex 223.907 35.3956 500
    endloop
  endfacet
  facet normal 0 0 1
    outer loop
      vertex 220.677 45.3368 500
      vertex 220.677 4.66317 500
      vertex 223.907 14.6044 500
    endloop
  endfacet
  facet normal 0 0 1
    outer loop
      vertex 215.451 54.3893 500
      vertex 220.677 4.66317 500
      vertex 220.677 45.3368 500
    endloop
  endfacet
  facet normal 0 0 1
    outer loop
      vertex 215.451 54.3893 500
      vertex 215.451 -4.38926 500
      vertex 220.677 4.66317 500
    endloop
  endfacet
  facet normal 0 0 1
    outer loop
      vertex 208.457 62.1572 500
      vertex 215.451 -4.38926 500
      vertex 215.451 54.3893 500
    endloop
  endfacet
  facet normal 0 0 1
    outer loop
      vertex 208.457 62.1572 500
      vertex 208.457 -12.1572 500
      vertex 215.451 -4.38926 500
    endloop
  endfacet
  facet normal 0 0 1
    outer loop
      vertex 200 68.3013 500
      vertex 208.457 -12.1572 500
      vertex 208.457 62.1572 500
    endloop
  endfacet
  facet normal 0 0 1
    outer loop
      vertex 200 68.3013 500
      vertex 200 -18.3013 500
      vertex 208.457 -12.1572 500
    endloop
  endfacet
  facet normal 0 0 1
    outer loop
      vertex 190.451 72.5528 500
      vertex 200 -18.3013 500
      vertex 200 68.3013 500
    endloop
  endfacet
  facet normal 0 0 1
    outer loop
      vertex 190.451 72.5528 500
      vertex 190.451 -22.5528 500
      vertex 200 -18.3013 500
    endloop
  endfacet
  facet normal 0 0 1
    outer loop
      vertex 180.226 74.7261 500
      vertex 190.451 -22.5528 500
      vertex 190.451 72.5528 500
    endloop
  endfacet
  facet normal 0 0 1
    outer loop
      vertex 180.226 74.7261 500
      vertex 180.226 -24.7261 500
      vertex 190.451 -22.5528 500
    endloop
  endfacet
  facet normal -0 0 1
    outer loop
      vertex 169.774 74.7261 500
      vertex 180.226 -24.7261 500
      vertex 180.226 74.7261 500
    endloop
  endfacet
  facet normal 0 0 1
    outer loop
      vertex 169.774 74.7261 500
      vertex 169.774 -24.7261 500
      vertex 180.226 -24.7261 500
    endloop
  endfacet
  facet normal -0 0 1
    outer loop
      vertex 159.549 72.5528 500
      vertex 169.774 -24.7261 500
      vertex 169.774 74.7261 500
    endloop
  endfacet
  facet normal 0 0 1
    outer loop
      vertex 159.549 72.5528 500
      vertex 159.549 -22.5528 500
      vertex 169.774 -24.7261 500
    endloop
  endfacet
  facet normal -0 0 1
    outer loop
      vertex 150 68.3013 500
      vertex 159.549 -22.5528 500
      vertex 159.549 72.5528 500
    endloop
  endfacet
  facet normal 0 0 1
    outer loop
      vertex 150 68.3013 500
      vertex 150 -18.3013 500
      vertex 159.549 -22.5528 500
    endloop
  endfacet
  facet normal -0 0 1
    outer loop
      vertex 141.543 62.1572 500
      vertex 150 -18.3013 500
      vertex 150 68.3013 500
    endloop
  endfacet
  facet normal 0 0 1
    outer loop
      vertex 141.543 62.1572 500
      vertex 141.543 -12.1572 500
      vertex 150 -18.3013 500
    endloop
  endfacet
  facet normal -0 0 1
    outer loop
      vertex 134.549 54.3893 500
      vertex 141.543 -12.1572 500
      vertex 141.543 62.1572 500
    endloop
  endfacet
  facet normal 0 0 1
    outer loop
      vertex 134.549 54.3893 500
      vertex 134.549 -4.38926 500
      vertex 141.543 -12.1572 500
    endloop
  endfacet
  facet normal -0 0 1
    outer loop
      vertex 129.323 45.3368 500
      vertex 134.549 -4.38926 500
      vertex 134.549 54.3893 500
    endloop
  endfacet
  facet normal 0 0 1
    outer loop
      vertex 129.323 45.3368 500
      vertex 129.323 4.66317 500
      vertex 134.549 -4.38926 500
    endloop
  endfacet
  facet normal -0 0 1
    outer loop
      vertex 126.093 35.3956 500
      vertex 129.323 4.66317 500
      vertex 129.323 45.3368 500
    endloop
  endfacet
  facet normal 0 0 1
    outer loop
      vertex 126.093 35.3956 500
      vertex 126.093 14.6044 500
      vertex 129.323 4.66317 500
    endloop
  endfacet
  facet normal 0 -0 1
    outer loop
      vertex 126.093 14.6044 500
      vertex 126.093 35.3956 500
      vertex 125 25 500
    endloop
  endfacet
  facet normal -0.587785 0.809017 0
    outer loop
      vertex 150 68.3013 0
      vertex 141.543 62.1572 500
      vertex 150 68.3013 500
    endloop
  endfacet
  facet normal -0.587785 0.809017 0
    outer loop
      vertex 141.543 62.1572 500
      vertex 150 68.3013 0
      vertex 141.543 62.1572 0
    endloop
  endfacet
  facet normal -0.207912 0.978148 0
    outer loop
      vertex 169.774 74.7261 0
      vertex 159.549 72.5528 500
      vertex 169.774 74.7261 500
    endloop
  endfacet
  facet normal -0.207912 0.978148 0
    outer loop
      vertex 159.549 72.5528 500
      vertex 169.774 74.7261 0
      vertex 159.549 72.5528 0
    endloop
  endfacet
  facet normal 0.994522 -0.104529 0
    outer loop
      vertex 223.907 14.6044 500
      vertex 225 25 0
      vertex 225 25 500
    endloop
  endfacet
  facet normal 0.994522 -0.104529 0
    outer loop
      vertex 225 25 0
      vertex 223.907 14.6044 500
      vertex 223.907 14.6044 0
    endloop
  endfacet
  facet normal 0.207912 -0.978148 0
    outer loop
      vertex 180.226 -24.7261 0
      vertex 190.451 -22.5528 500
      vertex 180.226 -24.7261 500
    endloop
  endfacet
  facet normal 0.207912 -0.978148 0
    outer loop
      vertex 190.451 -22.5528 500
      vertex 180.226 -24.7261 0
      vertex 190.451 -22.5528 0
    endloop
  endfacet
  facet normal 0.587785 -0.809017 0
    outer loop
      vertex 200 -18.3013 0
      vertex 208.457 -12.1572 500
      vertex 200 -18.3013 500
    endloop
  endfacet
  facet normal 0.587785 -0.809017 0
    outer loop
      vertex 208.457 -12.1572 500
      vertex 200 -18.3013 0
      vertex 208.457 -12.1572 0
    endloop
  endfacet
  facet normal -0.406737 -0.913545 0
    outer loop
      vertex 150 -18.3013 0
      vertex 159.549 -22.5528 500
      vertex 150 -18.3013 500
    endloop
  endfacet
  facet normal -0.406737 -0.913545 -0
    outer loop
      vertex 159.549 -22.5528 500
      vertex 150 -18.3013 0
      vertex 159.549 -22.5528 0
    endloop
  endfacet
  facet normal 0 -1 0
    outer loop
      vertex 169.774 -24.7261 0
      vertex 180.226 -24.7261 500
      vertex 169.774 -24.7261 500
    endloop
  endfacet
  facet normal 0 -1 -0
    outer loop
      vertex 180.226 -24.7261 500
      vertex 169.774 -24.7261 0
      vertex 180.226 -24.7261 0
    endloop
  endfacet
  facet normal -0.743145 -0.669131 0
    outer loop
      vertex 141.543 -12.1572 0
      vertex 134.549 -4.38926 500
      vertex 134.549 -4.38926 0
    endloop
  endfacet
  facet normal -0.743145 -0.669131 0
    outer loop
      vertex 134.549 -4.38926 500
      vertex 141.543 -12.1572 0
      vertex 141.543 -12.1572 500
    endloop
  endfacet
  facet normal -0.951057 -0.309017 0
    outer loop
      vertex 129.323 4.66317 0
      vertex 126.093 14.6044 500
      vertex 126.093 14.6044 0
    endloop
  endfacet
  facet normal -0.951057 -0.309017 0
    outer loop
      vertex 126.093 14.6044 500
      vertex 129.323 4.66317 0
      vertex 129.323 4.66317 500
    endloop
  endfacet
  facet normal -0.994522 -0.104529 0
    outer loop
      vertex 126.093 14.6044 0
      vertex 125 25 500
      vertex 125 25 0
    endloop
  endfacet
  facet normal -0.994522 -0.104529 0
    outer loop
      vertex 125 25 500
      vertex 126.093 14.6044 0
      vertex 126.093 14.6044 500
    endloop
  endfacet
  facet normal 0.406737 -0.913545 0
    outer loop
      vertex 190.451 -22.5528 0
      vertex 200 -18.3013 500
      vertex 190.451 -22.5528 500
    endloop
  endfacet
  facet normal 0.406737 -0.913545 0
    outer loop
      vertex 200 -18.3013 500
      vertex 190.451 -22.5528 0
      vertex 200 -18.3013 0
    endloop
  endfacet
  facet normal 0.951057 -0.309017 0
    outer loop
      vertex 220.677 4.66317 500
      vertex 223.907 14.6044 0
      vertex 223.907 14.6044 500
    endloop
  endfacet
  facet normal 0.951057 -0.309017 0
    outer loop
      vertex 223.907 14.6044 0
      vertex 220.677 4.66317 500
      vertex 220.677 4.66317 0
    endloop
  endfacet
  facet normal 0.866025 -0.5 0
    outer loop
      vertex 215.451 -4.38926 500
      vertex 220.677 4.66317 0
      vertex 220.677 4.66317 500
    endloop
  endfacet
  facet normal 0.866025 -0.5 0
    outer loop
      vertex 220.677 4.66317 0
      vertex 215.451 -4.38926 500
      vertex 215.451 -4.38926 0
    endloop
  endfacet
  facet normal -0.207912 -0.978148 0
    outer loop
      vertex 159.549 -22.5528 0
      vertex 169.774 -24.7261 500
      vertex 159.549 -22.5528 500
    endloop
  endfacet
  facet normal -0.207912 -0.978148 -0
    outer loop
      vertex 169.774 -24.7261 500
      vertex 159.549 -22.5528 0
      vertex 169.774 -24.7261 0
    endloop
  endfacet
  facet normal -0.866025 -0.5 0
    outer loop
      vertex 134.549 -4.38926 0
      vertex 129.323 4.66317 500
      vertex 129.323 4.66317 0
    endloop
  endfacet
  facet normal -0.866025 -0.5 0
    outer loop
      vertex 129.323 4.66317 500
      vertex 134.549 -4.38926 0
      vertex 134.549 -4.38926 500
    endloop
  endfacet
  facet normal -1 0 0
    outer loop
      vertex 0 0 0
      vertex 0 50 3
      vertex 0 50 0
    endloop
  endfacet
  facet normal -1 -0 0
    outer loop
      vertex 0 50 3
      vertex 0 0 0
      vertex 0 0 3
    endloop
  endfacet
  facet normal -0 0 1
    outer loop
      vertex 0 50 3
      vertex 100 0 3
      vertex 100 50 3
    endloop
  endfacet
  facet normal 0 0 1
    outer loop
      vertex 100 0 3
      vertex 0 50 3
      vertex 0 0 3
    endloop
  endfacet
  facet normal -1 0 0
    outer loop
      vertex 100 0 3
      vertex 100 50 500
      vertex 100 50 3
    endloop
  endfacet
  facet normal -1 -0 0
    outer loop
      vertex 100 50 500
      vertex 100 0 3
      vertex 100 0 500
    endloop
  endfacet
  facet normal 0 0 -1
    outer loop
      vertex 0 0 0
      vertex 103 50 0
      vertex 103 0 0
    endloop
  endfacet
  facet normal -0 0 -1
    outer loop
      vertex 103 50 0
      vertex 0 0 0
      vertex 0 50 0
    endloop
  endfacet
  facet normal 1 -0 0
    outer loop
      vertex 103 0 498.757
      vertex 103 50 0
      vertex 103 50 498.757
    endloop
  endfacet
  facet normal 1 0 0
    outer loop
      vertex 103 50 0
      vertex 103 0 498.757
      vertex 103 0 0
    endloop
  endfacet
  facet normal 0.707107 -0 0.707107
    outer loop
      vertex 251.321 0 651.321
      vertex 251.442 50 651.2
      vertex 251.321 50 651.321
    endloop
  endfacet
  facet normal 0.707107 0 0.707107
    outer loop
      vertex 251.442 50 651.2
      vertex 251.321 0 651.321
      vertex 251.442 0 651.2
    endloop
  endfacet
  facet normal 0.707107 0 -0.707107
    outer loop
      vertex 250 0 645.757
      vertex 103 50 498.757
      vertex 250 50 645.757
    endloop
  endfacet
  facet normal 0.707107 0 -0.707107
    outer loop
      vertex 103 50 498.757
      vertex 250 0 645.757
      vertex 103 0 498.757
    endloop
  endfacet
  facet normal 0.707105 0 -0.707109
    outer loop
      vertex 250 0 645.757
      vertex 252.443 50 648.2
      vertex 252.443 0 648.2
    endloop
  endfacet
  facet normal 0.707105 0 -0.707109
    outer loop
      vertex 252.443 50 648.2
      vertex 250 0 645.757
      vertex 250 50 645.757
    endloop
  endfacet
  facet normal -0.707107 0 0.707107
    outer loop
      vertex 251.2 0 651.2
      vertex 251.321 50 651.321
      vertex 251.2 50 651.2
    endloop
  endfacet
  facet normal -0.707107 0 0.707107
    outer loop
      vertex 251.321 50 651.321
      vertex 251.2 0 651.2
      vertex 251.321 0 651.321
    endloop
  endfacet
  facet normal -0.707107 0 0.707107
    outer loop
      vertex 100 0 500
      vertex 251 50 651
      vertex 100 50 500
    endloop
  endfacet
  facet normal -0.707107 0 0.707107
    outer loop
      vertex 251 50 651
      vertex 100 0 500
      vertex 251 0 651
    endloop
  endfacet
endsolid OpenSCAD_Model
