solid OpenSCAD_Model
  facet normal -1 0 0
    outer loop
      vertex 400 0 500
      vertex 400 100 3
      vertex 400 0 3
    endloop
  endfacet
  facet normal -1 0 0
    outer loop
      vertex 400 100 3
      vertex 400 0 500
      vertex 400 100 570
    endloop
  endfacet
  facet normal 1 -0 0
    outer loop
      vertex 400 0 500
      vertex 400 100 3
      vertex 400 100 570
    endloop
  endfacet
  facet normal 1 0 0
    outer loop
      vertex 400 100 3
      vertex 400 0 500
      vertex 400 0 3
    endloop
  endfacet
  facet normal -1 0 0
    outer loop
      vertex 400 0 0
      vertex 400 100 3
      vertex 400 100 0
    endloop
  endfacet
  facet normal -1 -0 0
    outer loop
      vertex 400 100 3
      vertex 400 0 0
      vertex 400 0 3
    endloop
  endfacet
  facet normal -0 0 1
    outer loop
      vertex 403 100 3
      vertex 500 0 3
      vertex 500 100 3
    endloop
  endfacet
  facet normal 0 0 1
    outer loop
      vertex 403 100 3
      vertex 403 0 3
      vertex 500 0 3
    endloop
  endfacet
  facet normal -0 0 1
    outer loop
      vertex 400 100 3
      vertex 403 0 3
      vertex 403 100 3
    endloop
  endfacet
  facet normal 0 0 1
    outer loop
      vertex 403 0 3
      vertex 400 100 3
      vertex 400 0 3
    endloop
  endfacet
  facet normal 1 -0 0
    outer loop
      vertex 500 0 3
      vertex 500 100 0
      vertex 500 100 3
    endloop
  endfacet
  facet normal 1 0 0
    outer loop
      vertex 500 100 0
      vertex 500 0 3
      vertex 500 0 0
    endloop
  endfacet
  facet normal 0 0 -1
    outer loop
      vertex 400 0 0
      vertex 500 100 0
      vertex 500 0 0
    endloop
  endfacet
  facet normal -0 0 -1
    outer loop
      vertex 500 100 0
      vertex 400 0 0
      vertex 400 100 0
    endloop
  endfacet
  facet normal 0 -1 0
    outer loop
      vertex 400 0 3
      vertex 403 0 500
      vertex 400 0 500
    endloop
  endfacet
  facet normal 0 -1 -0
    outer loop
      vertex 403 0 500
      vertex 400 0 3
      vertex 403 0 3
    endloop
  endfacet
  facet normal 0 1 -0
    outer loop
      vertex 403 0 3
      vertex 400 0 500
      vertex 403 0 500
    endloop
  endfacet
  facet normal 0 1 0
    outer loop
      vertex 400 0 500
      vertex 403 0 3
      vertex 400 0 3
    endloop
  endfacet
  facet normal 0 -1 0
    outer loop
      vertex 400 0 0
      vertex 403 0 3
      vertex 400 0 3
    endloop
  endfacet
  facet normal 0 -1 0
    outer loop
      vertex 500 0 0
      vertex 403 0 3
      vertex 400 0 0
    endloop
  endfacet
  facet normal 0 -1 0
    outer loop
      vertex 403 0 3
      vertex 500 0 0
      vertex 500 0 3
    endloop
  endfacet
  facet normal 0 1 -0
    outer loop
      vertex 403 100 3
      vertex 400 100 570
      vertex 403 100 570
    endloop
  endfacet
  facet normal 0 1 0
    outer loop
      vertex 400 100 570
      vertex 403 100 3
      vertex 400 100 3
    endloop
  endfacet
  facet normal 0 -1 0
    outer loop
      vertex 400 100 3
      vertex 403 100 570
      vertex 400 100 570
    endloop
  endfacet
  facet normal 0 -1 -0
    outer loop
      vertex 403 100 570
      vertex 400 100 3
      vertex 403 100 3
    endloop
  endfacet
  facet normal 0 1 -0
    outer loop
      vertex 500 100 0
      vertex 403 100 3
      vertex 500 100 3
    endloop
  endfacet
  facet normal 0 1 0
    outer loop
      vertex 400 100 0
      vertex 403 100 3
      vertex 500 100 0
    endloop
  endfacet
  facet normal 0 1 0
    outer loop
      vertex 403 100 3
      vertex 400 100 0
      vertex 400 100 3
    endloop
  endfacet
  facet normal 0 0.573462 -0.819232
    outer loop
      vertex 400 0 500
      vertex 403 100 570
      vertex 403 0 500
    endloop
  endfacet
  facet normal 0 0.573462 -0.819232
    outer loop
      vertex 403 100 570
      vertex 400 0 500
      vertex 400 100 570
    endloop
  endfacet
  facet normal 0 -0.573462 0.819232
    outer loop
      vertex 400 100 570
      vertex 403 0 500
      vertex 403 100 570
    endloop
  endfacet
  facet normal 0 -0.573462 0.819232
    outer loop
      vertex 403 0 500
      vertex 400 100 570
      vertex 400 0 500
    endloop
  endfacet
  facet normal 0.404913 -0.524319 0.74909
    outer loop
      vertex 216.592 99.1394 668.537
      vertex 400 100 570
      vertex 216.733 100 669.063
    endloop
  endfacet
  facet normal 0.404904 -0.524351 0.749072
    outer loop
      vertex 400 100 570
      vertex 216.592 99.1394 668.537
      vertex 400 0 500
    endloop
  endfacet
  facet normal -0.404904 0.524351 -0.749072
    outer loop
      vertex 216.592 99.1394 668.537
      vertex 400 100 570
      vertex 400 0 500
    endloop
  endfacet
  facet normal -0.404913 0.524319 -0.74909
    outer loop
      vertex 400 100 570
      vertex 216.592 99.1394 668.537
      vertex 216.733 100 669.063
    endloop
  endfacet
  facet normal 0.356332 -0.582603 0.73048
    outer loop
      vertex 216.592 99.1394 668.537
      vertex 197.855 0 598.607
      vertex 400 0 500
    endloop
  endfacet
  facet normal -0.356332 0.582603 -0.73048
    outer loop
      vertex 216.592 99.1394 668.537
      vertex 400 0 500
      vertex 197.855 0 598.607
    endloop
  endfacet
  facet normal 0.356307 -0.582604 0.730492
    outer loop
      vertex 196.962 9.8076 606.865
      vertex 195 0 600
      vertex 195.108 0 599.947
    endloop
  endfacet
  facet normal -0.356307 0.582604 -0.730492
    outer loop
      vertex 196.962 9.8076 606.865
      vertex 195.108 0 599.947
      vertex 195 0 600
    endloop
  endfacet
  facet normal 0 -1 0
    outer loop
      vertex 216.733 100 669.063
      vertex 218 100 670
      vertex 216.984 100 670
    endloop
  endfacet
  facet normal 0 -1 0
    outer loop
      vertex 400 100 570
      vertex 218 100 670
      vertex 216.733 100 669.063
    endloop
  endfacet
  facet normal 0 -1 0
    outer loop
      vertex 218 100 670
      vertex 400 100 570
      vertex 403 100 570
    endloop
  endfacet
  facet normal 0 1 0
    outer loop
      vertex 218 100 670
      vertex 216.733 100 669.063
      vertex 216.984 100 670
    endloop
  endfacet
  facet normal 0 1 -0
    outer loop
      vertex 400 100 570
      vertex 218 100 670
      vertex 403 100 570
    endloop
  endfacet
  facet normal 0 1 0
    outer loop
      vertex 218 100 670
      vertex 400 100 570
      vertex 216.733 100 669.063
    endloop
  endfacet
  facet normal 0 1 0
    outer loop
      vertex 232.135 100 727.233
      vertex 315.103 100 778.598
      vertex 316.603 100 776
    endloop
  endfacet
  facet normal 0 1 0
    outer loop
      vertex 315.103 100 778.598
      vertex 232.135 100 727.233
      vertex 228.5 100 728.598
    endloop
  endfacet
  facet normal 0 1 0
    outer loop
      vertex 228.5 100 728.598
      vertex 232.135 100 727.233
      vertex 229.237 100 727.321
    endloop
  endfacet
  facet normal 0 1 0
    outer loop
      vertex 232.307 100 727.186
      vertex 229.237 100 727.321
      vertex 232.135 100 727.233
    endloop
  endfacet
  facet normal 0 1 0
    outer loop
      vertex 216.984 100 670
      vertex 229.237 100 727.321
      vertex 232.307 100 727.186
    endloop
  endfacet
  facet normal 0 1 0
    outer loop
      vertex 216.733 100 669.063
      vertex 229.237 100 727.321
      vertex 216.984 100 670
    endloop
  endfacet
  facet normal 0 1 -0
    outer loop
      vertex 216.733 100 669.063
      vertex 100 100 245
      vertex 229.237 100 727.321
    endloop
  endfacet
  facet normal 0 1 -0
    outer loop
      vertex 103 100 244.605
      vertex 100 100 245
      vertex 216.733 100 669.063
    endloop
  endfacet
  facet normal 0 1 0
    outer loop
      vertex 103 100 244.605
      vertex 100 100 3
      vertex 100 100 245
    endloop
  endfacet
  facet normal 0 1 -0
    outer loop
      vertex 103 100 0
      vertex 100 100 3
      vertex 103 100 244.605
    endloop
  endfacet
  facet normal 0 1 0
    outer loop
      vertex 0 100 0
      vertex 100 100 3
      vertex 103 100 0
    endloop
  endfacet
  facet normal 0 1 0
    outer loop
      vertex 100 100 3
      vertex 0 100 0
      vertex 0 100 3
    endloop
  endfacet
  facet normal 0 0.573461 -0.819233
    outer loop
      vertex 195.122 0 600
      vertex 195 0 600
      vertex 196.962 9.8076 606.865
    endloop
  endfacet
  facet normal 0 -0.573461 0.819233
    outer loop
      vertex 195.122 0 600
      vertex 196.962 9.8076 606.865
      vertex 195 0 600
    endloop
  endfacet
  facet normal 0 0.573463 -0.819232
    outer loop
      vertex 218 100 670
      vertex 201.664 18.3177 612.822
      vertex 216.984 100 670
    endloop
  endfacet
  facet normal 0 -0.573463 0.819232
    outer loop
      vertex 218 100 670
      vertex 216.984 100 670
      vertex 201.664 18.3177 612.822
    endloop
  endfacet
  facet normal 0 1 -0
    outer loop
      vertex 400 0 500
      vertex 198.201 0 599.902
      vertex 403 0 500
    endloop
  endfacet
  facet normal 0 1 0
    outer loop
      vertex 198.201 0 599.902
      vertex 400 0 500
      vertex 197.855 0 598.607
    endloop
  endfacet
  facet normal 0 -1 0
    outer loop
      vertex 400 0 500
      vertex 198.201 0 599.902
      vertex 197.855 0 598.607
    endloop
  endfacet
  facet normal 0 -1 0
    outer loop
      vertex 198.201 0 599.902
      vertex 400 0 500
      vertex 403 0 500
    endloop
  endfacet
  facet normal 0 1 -0
    outer loop
      vertex 195.108 0 599.947
      vertex 195 0 600
      vertex 195.122 0 600
    endloop
  endfacet
  facet normal 0 -1 0
    outer loop
      vertex 195.108 0 599.947
      vertex 195.122 0 600
      vertex 195 0 600
    endloop
  endfacet
  facet normal 0 -1 0
    outer loop
      vertex 0 0 3
      vertex 0 0 0
      vertex 100 0 3
    endloop
  endfacet
  facet normal 0 -1 0
    outer loop
      vertex 232.135 0 727.233
      vertex 315.103 0 778.598
      vertex 228.5 0 728.598
    endloop
  endfacet
  facet normal 0 -1 0
    outer loop
      vertex 232.135 0 727.233
      vertex 228.5 0 728.598
      vertex 229.237 0 727.321
    endloop
  endfacet
  facet normal 0 -1 -0
    outer loop
      vertex 315.103 0 778.598
      vertex 232.135 0 727.233
      vertex 316.603 0 776
    endloop
  endfacet
  facet normal 0 -1 0
    outer loop
      vertex 229.237 0 727.321
      vertex 232.307 0 727.186
      vertex 232.135 0 727.233
    endloop
  endfacet
  facet normal 0 -1 0
    outer loop
      vertex 198.201 0 599.902
      vertex 229.237 0 727.321
      vertex 195.122 0 600
    endloop
  endfacet
  facet normal 0 -1 0
    outer loop
      vertex 197.855 0 598.607
      vertex 195.122 0 600
      vertex 195.108 0 599.947
    endloop
  endfacet
  facet normal 0 -1 -0
    outer loop
      vertex 229.237 0 727.321
      vertex 198.201 0 599.902
      vertex 232.307 0 727.186
    endloop
  endfacet
  facet normal 0 -1 0
    outer loop
      vertex 195.122 0 600
      vertex 197.855 0 598.607
      vertex 198.201 0 599.902
    endloop
  endfacet
  facet normal 0 -1 0
    outer loop
      vertex 100 0 245
      vertex 197.855 0 598.607
      vertex 195.108 0 599.947
    endloop
  endfacet
  facet normal 0 -1 0
    outer loop
      vertex 100 0 245
      vertex 103 0 244.605
      vertex 197.855 0 598.607
    endloop
  endfacet
  facet normal 0 -1 0
    outer loop
      vertex 100 0 3
      vertex 103 0 244.605
      vertex 100 0 245
    endloop
  endfacet
  facet normal 0 -1 0
    outer loop
      vertex 100 0 3
      vertex 103 0 0
      vertex 103 0 244.605
    endloop
  endfacet
  facet normal 0 -1 0
    outer loop
      vertex 103 0 0
      vertex 100 0 3
      vertex 0 0 0
    endloop
  endfacet
  facet normal -1 0 0
    outer loop
      vertex 0 0 0
      vertex 0 100 3
      vertex 0 100 0
    endloop
  endfacet
  facet normal -1 -0 0
    outer loop
      vertex 0 100 3
      vertex 0 0 0
      vertex 0 0 3
    endloop
  endfacet
  facet normal -0 0 1
    outer loop
      vertex 0 100 3
      vertex 100 0 3
      vertex 100 100 3
    endloop
  endfacet
  facet normal 0 0 1
    outer loop
      vertex 100 0 3
      vertex 0 100 3
      vertex 0 0 3
    endloop
  endfacet
  facet normal -1 0 0
    outer loop
      vertex 100 0 3
      vertex 100 100 245
      vertex 100 100 3
    endloop
  endfacet
  facet normal -1 -0 0
    outer loop
      vertex 100 100 245
      vertex 100 0 3
      vertex 100 0 245
    endloop
  endfacet
  facet normal 0 0 -1
    outer loop
      vertex 0 0 0
      vertex 103 100 0
      vertex 103 0 0
    endloop
  endfacet
  facet normal -0 0 -1
    outer loop
      vertex 103 100 0
      vertex 0 0 0
      vertex 0 100 0
    endloop
  endfacet
  facet normal 1 -0 0
    outer loop
      vertex 103 0 244.605
      vertex 103 100 0
      vertex 103 100 244.605
    endloop
  endfacet
  facet normal 1 0 0
    outer loop
      vertex 103 100 0
      vertex 103 0 244.605
      vertex 103 0 0
    endloop
  endfacet
  facet normal 0.258663 0 0.965968
    outer loop
      vertex 232.135 100 727.233
      vertex 232.307 0 727.186
      vertex 232.307 100 727.186
    endloop
  endfacet
  facet normal 0.258663 0 0.965968
    outer loop
      vertex 232.307 0 727.186
      vertex 232.135 100 727.233
      vertex 232.135 0 727.233
    endloop
  endfacet
  facet normal 0.965926 -1.66446e-05 -0.258819
    outer loop
      vertex 216.592 99.1394 668.537
      vertex 216.984 100 670
      vertex 232.307 100 727.186
    endloop
  endfacet
  facet normal 0.965926 -1.85846e-05 -0.258818
    outer loop
      vertex 216.984 100 670
      vertex 216.592 99.1394 668.537
      vertex 216.733 100 669.063
    endloop
  endfacet
  facet normal 0.965926 0 -0.258819
    outer loop
      vertex 232.307 0 727.186
      vertex 216.592 99.1394 668.537
      vertex 232.307 100 727.186
    endloop
  endfacet
  facet normal 0.965926 9.53577e-08 -0.258819
    outer loop
      vertex 198.201 0 599.902
      vertex 216.592 99.1394 668.537
      vertex 232.307 0 727.186
    endloop
  endfacet
  facet normal 0.965924 4.45588e-06 -0.258825
    outer loop
      vertex 216.592 99.1394 668.537
      vertex 198.201 0 599.902
      vertex 197.855 0 598.607
    endloop
  endfacet
  facet normal 0.965926 -1.78065e-05 -0.258819
    outer loop
      vertex 216.592 99.1394 668.537
      vertex 103 100 244.605
      vertex 216.733 100 669.063
    endloop
  endfacet
  facet normal 0.965926 2.17279e-08 -0.258819
    outer loop
      vertex 197.855 0 598.607
      vertex 103 100 244.605
      vertex 216.592 99.1394 668.537
    endloop
  endfacet
  facet normal 0.965926 0 -0.258819
    outer loop
      vertex 103 100 244.605
      vertex 197.855 0 598.607
      vertex 103 0 244.605
    endloop
  endfacet
  facet normal -0.965926 -2.49609e-09 0.258819
    outer loop
      vertex 100 100 245
      vertex 196.962 9.8076 606.865
      vertex 229.237 100 727.321
    endloop
  endfacet
  facet normal -0.965926 0 0.258819
    outer loop
      vertex 195.108 0 599.947
      vertex 100 100 245
      vertex 100 0 245
    endloop
  endfacet
  facet normal -0.965926 4.27069e-07 0.258819
    outer loop
      vertex 100 100 245
      vertex 195.108 0 599.947
      vertex 196.962 9.8076 606.865
    endloop
  endfacet
  facet normal -0.965926 3.18695e-07 0.258819
    outer loop
      vertex 229.237 0 727.321
      vertex 196.962 9.8076 606.865
      vertex 195.122 0 600
    endloop
  endfacet
  facet normal -0.965926 0 0.258819
    outer loop
      vertex 196.962 9.8076 606.865
      vertex 229.237 0 727.321
      vertex 229.237 100 727.321
    endloop
  endfacet
  facet normal -0.965918 -2.14609e-05 0.258848
    outer loop
      vertex 196.962 9.8076 606.865
      vertex 195.108 0 599.947
      vertex 195.122 0 600
    endloop
  endfacet
  facet normal -0.866031 0 -0.499991
    outer loop
      vertex 229.237 0 727.321
      vertex 228.5 100 728.598
      vertex 229.237 100 727.321
    endloop
  endfacet
  facet normal -0.866031 -0 -0.499991
    outer loop
      vertex 228.5 100 728.598
      vertex 229.237 0 727.321
      vertex 228.5 0 728.598
    endloop
  endfacet
  facet normal -0.5 0 0.866025
    outer loop
      vertex 228.5 100 728.598
      vertex 315.103 2.99778 778.598
      vertex 315.103 100 778.598
    endloop
  endfacet
  facet normal -0.5 0 0.866025
    outer loop
      vertex 228.5 0 728.598
      vertex 315.103 2.99778 778.598
      vertex 228.5 100 728.598
    endloop
  endfacet
  facet normal -0.5 0 0.866025
    outer loop
      vertex 315.103 2.99778 778.598
      vertex 228.5 0 728.598
      vertex 315.103 0 778.598
    endloop
  endfacet
  facet normal 0.866026 0 0.499999
    outer loop
      vertex 315.103 2.99778 778.598
      vertex 315.103 0 778.598
      vertex 316.603 0 776
    endloop
  endfacet
  facet normal 0.866026 -0 0.499999
    outer loop
      vertex 315.103 2.99778 778.598
      vertex 316.603 100 776
      vertex 315.103 100 778.598
    endloop
  endfacet
  facet normal 0.866026 0 0.499999
    outer loop
      vertex 316.603 100 776
      vertex 315.103 2.99778 778.598
      vertex 316.603 0 776
    endloop
  endfacet
  facet normal 0.5 0 -0.866025
    outer loop
      vertex 232.135 0 727.233
      vertex 316.603 100 776
      vertex 316.603 0 776
    endloop
  endfacet
  facet normal 0.5 0 -0.866025
    outer loop
      vertex 316.603 100 776
      vertex 232.135 0 727.233
      vertex 232.135 100 727.233
    endloop
  endfacet
  facet normal 1 0 0
    outer loop
      vertex 315 75 841
      vertex 315 2.92947 778.539
      vertex 315 99.0235 778.539
    endloop
  endfacet
  facet normal -1 0 -0
    outer loop
      vertex 315 75 841
      vertex 315 99.0235 778.539
      vertex 315 2.92947 778.539
    endloop
  endfacet
  facet normal 0 0.654932 -0.755688
    outer loop
      vertex 315.103 2.99778 778.598
      vertex 318 0 776
      vertex 316.603 0 776
    endloop
  endfacet
  facet normal -1.98983e-06 0.654931 -0.755689
    outer loop
      vertex 318 0 776
      vertex 315.103 2.99778 778.598
      vertex 318 75 841
    endloop
  endfacet
  facet normal 1.84267e-05 0.654931 -0.755689
    outer loop
      vertex 315 75 841
      vertex 315.103 2.99778 778.598
      vertex 315 2.92947 778.539
    endloop
  endfacet
  facet normal 0 0.65493 -0.755689
    outer loop
      vertex 315.103 2.99778 778.598
      vertex 315 75 841
      vertex 318 75 841
    endloop
  endfacet
  facet normal 1.98983e-06 -0.654931 0.755689
    outer loop
      vertex 315.103 2.99778 778.598
      vertex 318 0 776
      vertex 318 75 841
    endloop
  endfacet
  facet normal 0 -0.654932 0.755688
    outer loop
      vertex 318 0 776
      vertex 315.103 2.99778 778.598
      vertex 316.603 0 776
    endloop
  endfacet
  facet normal 0 -0.65493 0.755689
    outer loop
      vertex 315 75 841
      vertex 315.103 2.99778 778.598
      vertex 318 75 841
    endloop
  endfacet
  facet normal -1.84267e-05 -0.654931 0.755689
    outer loop
      vertex 315.103 2.99778 778.598
      vertex 315 75 841
      vertex 315 2.92947 778.539
    endloop
  endfacet
  facet normal -0 0 1
    outer loop
      vertex 316.603 100 776
      vertex 318 0 776
      vertex 318 100 776
    endloop
  endfacet
  facet normal 0 0 1
    outer loop
      vertex 318 0 776
      vertex 316.603 100 776
      vertex 316.603 0 776
    endloop
  endfacet
  facet normal 0 0 -1
    outer loop
      vertex 316.603 0 776
      vertex 318 100 776
      vertex 318 0 776
    endloop
  endfacet
  facet normal -0 0 -1
    outer loop
      vertex 318 100 776
      vertex 316.603 0 776
      vertex 316.603 100 776
    endloop
  endfacet
  facet normal -1 0 0
    outer loop
      vertex 318 100 776
      vertex 318 0 776
      vertex 318 75 841
    endloop
  endfacet
  facet normal 1 0 0
    outer loop
      vertex 318 100 776
      vertex 318 75 841
      vertex 318 0 776
    endloop
  endfacet
endsolid OpenSCAD_Model
